<svg width="385" height="65" viewBox="0 0 385 65" fill="none" xmlns="http://www.w3.org/2000/svg">
<g clip-path="url(#clip0_2851_86)">
<rect x="5.38452" width="40.3846" height="16.1538" rx="8.07692" fill="white"/>
<rect x="53.8462" width="16.1538" height="16.1538" rx="8.07692" fill="#6975FF"/>
<rect x="29.6152" y="48.4615" width="40.3846" height="16.1538" rx="8.07692" fill="#6975FF"/>
<rect x="5.38452" y="48.4615" width="16.1538" height="16.1538" rx="8.07692" fill="white"/>
<rect x="5.38452" y="24.2308" width="28.2692" height="16.1538" rx="8.07692" fill="white"/>
<rect x="41.7307" y="24.2308" width="28.2692" height="16.1538" rx="8.07692" fill="#6975FF"/>
<path d="M191.154 58.5101V5.8891H180.248V58.5101H191.154Z" fill="white"/>
<path d="M173.091 58.5101V5.8891H162.185V58.5101H173.091Z" fill="white"/>
<path d="M155.508 58.5099V19.8732H144.602V41.4261C144.602 46.6162 141.947 49.2832 137.786 49.2832C133.624 49.2832 131.185 46.6162 131.185 41.4261V19.8732H120.279V44.8862C120.279 53.7524 125.086 59.2308 133.337 59.2308C138.862 59.2308 142.091 56.2753 144.602 53.0316V58.5099H155.508Z" fill="white"/>
<path d="M115.719 15.5484V6.46587C113.71 5.81712 111.414 5.38461 107.97 5.38461C100.292 5.38461 96.0589 9.27713 96.0589 17.783V20.2338H91.5386V29.2443H96.0589V58.5102H106.965V29.2443H115.647V20.3059H106.822V18.7922C106.822 15.9088 108.257 14.6113 110.768 14.6113C112.633 14.6113 114.14 14.9717 115.719 15.5484Z" fill="white"/>
<path d="M385 52.0128L381.432 48.6926C378.447 51.8685 374.733 54.2504 369.928 54.2504C362.064 54.2504 356.093 47.8264 356.093 39.6701C356.093 31.586 361.918 25.162 369.564 25.162C374.661 25.162 378.01 27.6883 380.995 30.792L384.709 26.8943C381.214 23.2131 376.772 20.2538 369.636 20.2538C358.642 20.2538 350.341 29.204 350.341 39.8145C350.341 50.3527 358.642 59.2308 369.636 59.2308C376.699 59.2308 381.214 56.1993 385 52.0128Z" fill="white"/>
<path d="M343.737 12.891V6.75574H337.33V12.891H343.737ZM343.3 58.3643V21.0473H337.694V58.3643H343.3Z" fill="white"/>
<path d="M316.922 43.4956C316.922 32.2356 323.621 26.389 331.849 26.389H332.286V20.3981C325.15 20.1094 319.689 24.5845 316.922 30.792V21.0477H311.315V58.3647H316.922V43.4956Z" fill="white"/>
<path d="M304.611 39.6702C304.611 27.3274 295.655 20.2538 286.626 20.2538C279.709 20.2538 275.267 24.0793 272.209 28.5545V5.67349H266.603V58.3647H272.209V51.2189C275.122 55.4054 279.636 59.1587 286.626 59.1587C295.728 59.1587 304.611 51.9407 304.611 39.6702ZM298.859 39.7423C298.859 48.837 292.888 54.1783 285.607 54.1783C278.617 54.1783 271.991 48.4039 271.991 39.6702C271.991 31.0086 278.617 25.2342 285.607 25.2342C292.743 25.2342 298.859 30.8642 298.859 39.7423Z" fill="white"/>
<path d="M241.693 25.4506C248.756 25.4506 252.907 28.9152 252.907 35.6279V36.9271C249.557 35.9888 246.135 35.3392 241.329 35.3392C231.791 35.3392 225.238 39.5256 225.238 47.4654C225.238 55.2608 232.3 59.1585 239.291 59.1585C245.917 59.1585 250.285 56.1269 252.907 52.7345V58.3645H258.295V35.5557C258.295 25.7393 252.543 20.5423 242.276 20.5423C236.815 20.5423 232.737 21.7694 228.587 23.6461L230.262 28.1934C233.757 26.6054 237.252 25.4506 241.693 25.4506ZM241.912 39.4534C246.499 39.4534 250.213 40.2474 252.98 41.0414V44.6504C252.98 50.5691 247.3 54.7555 240.383 54.7555C235.286 54.7555 230.917 52.0127 230.917 47.2488C230.917 42.485 234.849 39.4534 241.912 39.4534Z" fill="white"/>
<path d="M212.627 21.192V18.1604C212.627 12.8191 214.811 10.2207 219.18 10.2207C221.073 10.2207 222.602 10.5816 224.641 11.159V6.32295C222.821 5.67333 221.073 5.38461 218.452 5.38461C211.243 5.38461 207.093 9.7154 207.093 17.8717V21.1198H201.923V25.9558H207.093V58.3645H212.7V25.9558H224.568V21.192H212.627Z" fill="white"/>
</g>
<defs>
<clipPath id="clip0_2851_86">
<rect width="385" height="64.6154" fill="white"/>
</clipPath>
</defs>
</svg>
