<svg width="143" height="24" viewBox="0 0 143 24" fill="none" xmlns="http://www.w3.org/2000/svg">
<rect x="2" width="15" height="6" rx="3" fill="#1D1D1F"/>
<rect x="20" width="6" height="6" rx="3" fill="#6975FF"/>
<rect x="11" y="18" width="15" height="6" rx="3" fill="#6975FF"/>
<rect x="2" y="18" width="6" height="6" rx="3" fill="#1D1D1F"/>
<rect x="2" y="9" width="10.5" height="6" rx="3" fill="#1D1D1F"/>
<rect x="15.5" y="9" width="10.5" height="6" rx="3" fill="#6975FF"/>
<path d="M71 21.7323V2.18738H66.9492V21.7323H71Z" fill="#1D1D1F"/>
<path d="M64.2908 21.7323V2.18738H60.24V21.7323H64.2908Z" fill="#1D1D1F"/>
<path d="M57.7602 21.7323V7.38147H53.7093V15.3869C53.7093 17.3146 52.7232 18.3052 51.1775 18.3052C49.6318 18.3052 48.7257 17.3146 48.7257 15.3869V7.38147H44.6748V16.672C44.6748 19.9652 46.4604 22 49.5252 22C51.5773 22 52.7765 20.9023 53.7093 19.6975V21.7323H57.7602Z" fill="#1D1D1F"/>
<path d="M42.9812 5.77512V2.40161C42.235 2.16064 41.3821 2 40.1029 2C37.2513 2 35.679 3.44579 35.679 6.60511V7.51542H34V10.8622H35.679V21.7323H39.7298V10.8622H42.9545V7.54219H39.6765V6.97994C39.6765 5.90899 40.2095 5.42706 41.1423 5.42706C41.8352 5.42706 42.3949 5.56093 42.9812 5.77512Z" fill="#1D1D1F"/>
<path d="M143 19.3191L141.675 18.0858C140.566 19.2654 139.187 20.1502 137.402 20.1502C134.481 20.1502 132.263 17.7641 132.263 14.7346C132.263 11.7319 134.427 9.34588 137.266 9.34588C139.16 9.34588 140.404 10.2842 141.513 11.437L142.892 9.98931C141.594 8.62202 139.944 7.52283 137.294 7.52283C133.21 7.52283 130.127 10.8472 130.127 14.7882C130.127 18.7024 133.21 22 137.294 22C139.917 22 141.594 20.874 143 19.3191Z" fill="#1D1D1F"/>
<path d="M127.674 4.78809V2.50928H125.294V4.78809H127.674ZM127.512 21.6782V7.81758H125.429V21.6782H127.512Z" fill="#1D1D1F"/>
<path d="M117.714 16.1555C117.714 11.9732 120.202 9.80164 123.258 9.80164H123.42V7.57644C120.77 7.4692 118.741 9.1314 117.714 11.437V7.81773H115.631V21.6783H117.714V16.1555Z" fill="#1D1D1F"/>
<path d="M113.141 14.7346C113.141 10.1502 109.815 7.52284 106.461 7.52284C103.892 7.52284 102.242 8.94375 101.106 10.606V2.1073H99.0238V21.6783H101.106V19.0242C102.188 20.5791 103.865 21.9732 106.461 21.9732C109.842 21.9732 113.141 19.2923 113.141 14.7346ZM111.005 14.7614C111.005 18.1395 108.787 20.1234 106.083 20.1234C103.486 20.1234 101.025 17.9786 101.025 14.7346C101.025 11.5175 103.486 9.37271 106.083 9.37271C108.733 9.37271 111.005 11.4639 111.005 14.7614Z" fill="#1D1D1F"/>
<path d="M89.7718 9.45306C92.3952 9.45306 93.9368 10.7399 93.9368 13.2332V13.7158C92.6927 13.3673 91.4216 13.126 89.6366 13.126C86.0937 13.126 83.6596 14.6809 83.6596 17.63C83.6596 20.5254 86.283 21.9732 88.8793 21.9732C91.3404 21.9732 92.9631 20.8471 93.9368 19.5871V21.6782H95.9381V13.2064C95.9381 9.5603 93.8015 7.63 89.9882 7.63C87.9598 7.63 86.4453 8.08577 84.9037 8.78282L85.5257 10.4718C86.8239 9.88201 88.1221 9.45306 89.7718 9.45306ZM89.853 14.6541C91.5568 14.6541 92.9361 14.949 93.9638 15.2439V16.5844C93.9638 18.7828 91.8543 20.3378 89.285 20.3378C87.3918 20.3378 85.7691 19.319 85.7691 17.5496C85.7691 15.7801 87.2296 14.6541 89.853 14.6541Z" fill="#1D1D1F"/>
<path d="M78.9756 7.87131V6.7453C78.9756 4.76139 79.787 3.79624 81.4097 3.79624C82.1129 3.79624 82.6808 3.93029 83.4381 4.14477V2.34853C82.7619 2.10724 82.1129 2 81.1392 2C78.4618 2 76.9202 3.60858 76.9202 6.63806V7.8445H75V9.64074H76.9202V21.6783H79.0027V9.64074H83.411V7.87131H78.9756Z" fill="#1D1D1F"/>
</svg>
