<svg width="721" height="316" viewBox="0 0 721 316" fill="none" xmlns="http://www.w3.org/2000/svg">
<rect x="0.5" y="0.339417" width="719.631" height="315.661" rx="157.83" fill="white"/>
<rect x="0.5" y="0.339417" width="719.631" height="315.661" rx="15.0315" fill="url(#paint0_linear_2851_55)"/>
<path d="M172.805 209.35V187.207H180.698C182.421 187.207 183.848 187.521 184.98 188.148C186.112 188.775 186.959 189.633 187.521 190.721C188.083 191.802 188.364 193.02 188.364 194.375C188.364 195.738 188.079 196.963 187.51 198.052C186.948 199.133 186.097 199.991 184.958 200.625C183.827 201.252 182.403 201.566 180.687 201.566H175.26V198.733H180.385C181.473 198.733 182.356 198.545 183.034 198.171C183.711 197.789 184.209 197.27 184.526 196.614C184.843 195.958 185.002 195.212 185.002 194.375C185.002 193.539 184.843 192.797 184.526 192.148C184.209 191.499 183.708 190.991 183.023 190.624C182.345 190.256 181.451 190.072 180.341 190.072H176.146V209.35H172.805ZM192.021 209.35V192.743H195.146V195.381H195.319C195.622 194.487 196.155 193.784 196.919 193.273C197.691 192.754 198.563 192.494 199.536 192.494C199.738 192.494 199.976 192.501 200.249 192.516C200.531 192.53 200.75 192.548 200.909 192.57V195.662C200.779 195.626 200.549 195.586 200.217 195.543C199.885 195.493 199.554 195.468 199.222 195.468C198.458 195.468 197.777 195.63 197.179 195.954C196.588 196.271 196.119 196.715 195.773 197.284C195.427 197.846 195.254 198.488 195.254 199.209V209.35H192.021ZM210.108 209.686C208.551 209.686 207.192 209.329 206.031 208.615C204.871 207.902 203.97 206.903 203.328 205.62C202.687 204.337 202.366 202.838 202.366 201.122C202.366 199.4 202.687 197.893 203.328 196.603C203.97 195.313 204.871 194.311 206.031 193.597C207.192 192.883 208.551 192.527 210.108 192.527C211.664 192.527 213.023 192.883 214.184 193.597C215.344 194.311 216.245 195.313 216.887 196.603C217.528 197.893 217.849 199.4 217.849 201.122C217.849 202.838 217.528 204.337 216.887 205.62C216.245 206.903 215.344 207.902 214.184 208.615C213.023 209.329 211.664 209.686 210.108 209.686ZM210.118 206.972C211.127 206.972 211.964 206.705 212.627 206.172C213.29 205.638 213.78 204.928 214.097 204.042C214.422 203.155 214.584 202.178 214.584 201.111C214.584 200.052 214.422 199.079 214.097 198.192C213.78 197.298 213.29 196.581 212.627 196.041C211.964 195.5 211.127 195.23 210.118 195.23C209.102 195.23 208.259 195.5 207.588 196.041C206.925 196.581 206.431 197.298 206.107 198.192C205.79 199.079 205.631 200.052 205.631 201.111C205.631 202.178 205.79 203.155 206.107 204.042C206.431 204.928 206.925 205.638 207.588 206.172C208.259 206.705 209.102 206.972 210.118 206.972ZM227.675 209.675C226.334 209.675 225.137 209.332 224.085 208.648C223.04 207.956 222.218 206.972 221.62 205.696C221.029 204.413 220.733 202.874 220.733 201.079C220.733 199.284 221.032 197.749 221.631 196.473C222.236 195.197 223.065 194.22 224.117 193.543C225.17 192.865 226.363 192.527 227.696 192.527C228.727 192.527 229.556 192.7 230.183 193.046C230.817 193.384 231.308 193.781 231.654 194.235C232.007 194.689 232.281 195.089 232.475 195.435H232.67V187.207H235.903V209.35H232.746V206.766H232.475C232.281 207.119 232 207.523 231.632 207.977C231.272 208.431 230.774 208.828 230.14 209.167C229.506 209.505 228.684 209.675 227.675 209.675ZM228.388 206.918C229.318 206.918 230.104 206.673 230.745 206.182C231.394 205.685 231.884 204.997 232.216 204.117C232.555 203.238 232.724 202.214 232.724 201.047C232.724 199.893 232.558 198.884 232.227 198.019C231.895 197.154 231.409 196.48 230.767 195.997C230.125 195.514 229.333 195.273 228.388 195.273C227.415 195.273 226.604 195.525 225.956 196.03C225.307 196.534 224.817 197.223 224.485 198.095C224.161 198.967 223.999 199.951 223.999 201.047C223.999 202.157 224.164 203.155 224.496 204.042C224.827 204.928 225.318 205.631 225.966 206.15C226.622 206.662 227.43 206.918 228.388 206.918ZM251.037 202.463V192.743H254.281V209.35H251.102V206.474H250.929C250.547 207.361 249.934 208.1 249.091 208.691C248.255 209.275 247.213 209.567 245.966 209.567C244.899 209.567 243.955 209.332 243.133 208.864C242.319 208.388 241.677 207.685 241.209 206.755C240.748 205.826 240.517 204.676 240.517 203.306V192.743H243.75V202.917C243.75 204.049 244.063 204.95 244.69 205.62C245.318 206.291 246.132 206.626 247.134 206.626C247.739 206.626 248.341 206.474 248.94 206.172C249.545 205.869 250.046 205.411 250.443 204.798C250.846 204.186 251.044 203.407 251.037 202.463ZM265.62 209.686C264.013 209.686 262.629 209.322 261.468 208.594C260.315 207.858 259.428 206.846 258.808 205.555C258.189 204.265 257.879 202.787 257.879 201.122C257.879 199.436 258.196 197.947 258.83 196.657C259.464 195.359 260.358 194.347 261.512 193.619C262.665 192.891 264.024 192.527 265.588 192.527C266.849 192.527 267.974 192.761 268.961 193.229C269.949 193.691 270.745 194.339 271.351 195.176C271.963 196.012 272.327 196.988 272.443 198.106H269.296C269.123 197.327 268.727 196.657 268.107 196.095C267.494 195.532 266.673 195.251 265.642 195.251C264.741 195.251 263.952 195.489 263.274 195.965C262.604 196.433 262.081 197.104 261.706 197.976C261.331 198.841 261.144 199.864 261.144 201.047C261.144 202.258 261.328 203.303 261.695 204.182C262.063 205.062 262.582 205.743 263.252 206.226C263.93 206.709 264.726 206.95 265.642 206.95C266.255 206.95 266.81 206.838 267.307 206.615C267.811 206.384 268.233 206.056 268.572 205.631C268.918 205.206 269.159 204.694 269.296 204.096H272.443C272.327 205.17 271.978 206.128 271.394 206.972C270.81 207.815 270.028 208.478 269.048 208.961C268.075 209.444 266.932 209.686 265.62 209.686ZM283.652 192.743V195.338H274.581V192.743H283.652ZM277.014 188.764H280.246V204.474C280.246 205.101 280.34 205.573 280.528 205.89C280.715 206.2 280.956 206.413 281.252 206.528C281.555 206.637 281.883 206.691 282.236 206.691C282.495 206.691 282.722 206.673 282.917 206.637C283.112 206.6 283.263 206.572 283.371 206.55L283.955 209.221C283.768 209.293 283.501 209.365 283.155 209.437C282.809 209.516 282.376 209.559 281.857 209.567C281.007 209.581 280.214 209.43 279.479 209.113C278.744 208.795 278.149 208.305 277.695 207.642C277.241 206.979 277.014 206.146 277.014 205.144V188.764ZM301.73 209.664C300.245 209.664 298.966 209.394 297.892 208.853C296.825 208.312 296.003 207.577 295.427 206.647C294.85 205.71 294.562 204.651 294.562 203.469C294.562 202.568 294.749 201.767 295.124 201.068C295.499 200.362 296.021 199.71 296.692 199.111C297.362 198.513 298.137 197.911 299.016 197.306L302.585 194.786C303.19 194.39 303.662 193.972 304.001 193.532C304.34 193.085 304.509 192.534 304.509 191.878C304.509 191.359 304.286 190.861 303.839 190.386C303.392 189.91 302.794 189.672 302.044 189.672C301.525 189.672 301.067 189.798 300.671 190.051C300.282 190.303 299.975 190.627 299.752 191.024C299.535 191.413 299.427 191.824 299.427 192.256C299.427 192.761 299.564 193.269 299.838 193.781C300.119 194.293 300.48 194.822 300.919 195.37C301.359 195.911 301.82 196.473 302.303 197.057L312.586 209.35H308.931L300.422 199.349C299.708 198.506 299.045 197.713 298.433 196.97C297.82 196.221 297.323 195.464 296.941 194.7C296.566 193.929 296.378 193.096 296.378 192.202C296.378 191.186 296.609 190.285 297.07 189.499C297.539 188.706 298.191 188.086 299.027 187.639C299.863 187.193 300.844 186.969 301.968 186.969C303.107 186.969 304.084 187.193 304.898 187.639C305.72 188.079 306.351 188.667 306.79 189.402C307.237 190.13 307.461 190.926 307.461 191.791C307.461 192.844 307.198 193.774 306.672 194.581C306.153 195.381 305.435 196.116 304.52 196.787L300.076 200.063C299.211 200.697 298.609 201.324 298.27 201.944C297.939 202.557 297.773 203.036 297.773 203.382C297.773 204.016 297.935 204.604 298.26 205.144C298.591 205.685 299.053 206.118 299.644 206.442C300.242 206.766 300.941 206.928 301.741 206.928C302.563 206.928 303.363 206.752 304.141 206.399C304.927 206.038 305.637 205.523 306.271 204.853C306.913 204.182 307.421 203.378 307.796 202.441C308.171 201.504 308.358 200.456 308.358 199.295H311.278C311.278 200.722 311.115 201.93 310.791 202.917C310.467 203.897 310.074 204.698 309.612 205.317C309.158 205.93 308.729 206.409 308.326 206.755C308.196 206.871 308.074 206.986 307.958 207.101C307.843 207.217 307.72 207.332 307.591 207.447C306.841 208.204 305.933 208.763 304.866 209.123C303.806 209.484 302.761 209.664 301.73 209.664ZM330.604 209.35H323.436V187.207H330.831C333.001 187.207 334.864 187.65 336.421 188.537C337.978 189.416 339.171 190.681 340 192.332C340.836 193.975 341.254 195.947 341.254 198.246C341.254 200.553 340.833 202.535 339.989 204.193C339.153 205.851 337.942 207.127 336.357 208.021C334.771 208.907 332.853 209.35 330.604 209.35ZM326.777 206.431H330.421C332.107 206.431 333.509 206.114 334.627 205.48C335.744 204.838 336.58 203.912 337.135 202.701C337.69 201.483 337.968 199.998 337.968 198.246C337.968 196.509 337.69 195.035 337.135 193.824C336.587 192.613 335.769 191.694 334.681 191.067C333.592 190.44 332.241 190.126 330.626 190.126H326.777V206.431ZM352.307 209.686C350.671 209.686 349.262 209.336 348.08 208.637C346.905 207.93 345.997 206.939 345.355 205.663C344.721 204.38 344.404 202.877 344.404 201.155C344.404 199.454 344.721 197.954 345.355 196.657C345.997 195.359 346.89 194.347 348.036 193.619C349.19 192.891 350.538 192.527 352.08 192.527C353.017 192.527 353.925 192.682 354.805 192.992C355.684 193.301 356.474 193.788 357.173 194.451C357.872 195.114 358.423 195.976 358.827 197.035C359.231 198.088 359.433 199.367 359.433 200.874V202.02H346.231V199.598H356.265C356.265 198.747 356.092 197.994 355.746 197.338C355.4 196.675 354.913 196.152 354.286 195.77C353.666 195.388 352.938 195.197 352.102 195.197C351.194 195.197 350.401 195.421 349.723 195.868C349.053 196.307 348.534 196.884 348.166 197.598C347.806 198.304 347.626 199.072 347.626 199.901V201.793C347.626 202.903 347.82 203.847 348.209 204.625C348.606 205.404 349.157 205.999 349.864 206.409C350.57 206.813 351.395 207.015 352.34 207.015C352.952 207.015 353.511 206.928 354.016 206.755C354.52 206.575 354.956 206.309 355.324 205.955C355.691 205.602 355.973 205.166 356.167 204.647L359.227 205.199C358.982 206.1 358.542 206.889 357.908 207.566C357.281 208.237 356.492 208.759 355.54 209.134C354.596 209.502 353.518 209.686 352.307 209.686ZM376.751 192.743L370.729 209.35H367.269L361.235 192.743H364.706L368.912 205.523H369.085L373.28 192.743H376.751ZM386.382 209.686C384.746 209.686 383.337 209.336 382.154 208.637C380.979 207.93 380.071 206.939 379.43 205.663C378.795 204.38 378.478 202.877 378.478 201.155C378.478 199.454 378.795 197.954 379.43 196.657C380.071 195.359 380.965 194.347 382.111 193.619C383.264 192.891 384.612 192.527 386.155 192.527C387.092 192.527 388 192.682 388.88 192.992C389.759 193.301 390.548 193.788 391.248 194.451C391.947 195.114 392.498 195.976 392.902 197.035C393.305 198.088 393.507 199.367 393.507 200.874V202.02H380.306V199.598H390.339C390.339 198.747 390.166 197.994 389.82 197.338C389.474 196.675 388.988 196.152 388.361 195.77C387.741 195.388 387.013 195.197 386.177 195.197C385.268 195.197 384.475 195.421 383.798 195.868C383.128 196.307 382.609 196.884 382.241 197.598C381.881 198.304 381.7 199.072 381.7 199.901V201.793C381.7 202.903 381.895 203.847 382.284 204.625C382.681 205.404 383.232 205.999 383.938 206.409C384.645 206.813 385.47 207.015 386.414 207.015C387.027 207.015 387.586 206.928 388.09 206.755C388.595 206.575 389.031 206.309 389.399 205.955C389.766 205.602 390.047 205.166 390.242 204.647L393.302 205.199C393.057 206.1 392.617 206.889 391.983 207.566C391.356 208.237 390.566 208.759 389.615 209.134C388.671 209.502 387.593 209.686 386.382 209.686ZM400.327 187.207V209.35H397.094V187.207H400.327ZM411.672 209.686C410.115 209.686 408.756 209.329 407.596 208.615C406.435 207.902 405.534 206.903 404.893 205.62C404.251 204.337 403.93 202.838 403.93 201.122C403.93 199.4 404.251 197.893 404.893 196.603C405.534 195.313 406.435 194.311 407.596 193.597C408.756 192.883 410.115 192.527 411.672 192.527C413.229 192.527 414.588 192.883 415.748 193.597C416.909 194.311 417.81 195.313 418.451 196.603C419.093 197.893 419.413 199.4 419.413 201.122C419.413 202.838 419.093 204.337 418.451 205.62C417.81 206.903 416.909 207.902 415.748 208.615C414.588 209.329 413.229 209.686 411.672 209.686ZM411.683 206.972C412.692 206.972 413.528 206.705 414.191 206.172C414.854 205.638 415.344 204.928 415.662 204.042C415.986 203.155 416.148 202.178 416.148 201.111C416.148 200.052 415.986 199.079 415.662 198.192C415.344 197.298 414.854 196.581 414.191 196.041C413.528 195.5 412.692 195.23 411.683 195.23C410.666 195.23 409.823 195.5 409.153 196.041C408.489 196.581 407.996 197.298 407.671 198.192C407.354 199.079 407.196 200.052 407.196 201.111C407.196 202.178 407.354 203.155 407.671 204.042C407.996 204.928 408.489 205.638 409.153 206.172C409.823 206.705 410.666 206.972 411.683 206.972ZM423.022 215.578V192.743H426.179V195.435H426.449C426.637 195.089 426.907 194.689 427.26 194.235C427.614 193.781 428.104 193.384 428.731 193.046C429.358 192.7 430.187 192.527 431.218 192.527C432.558 192.527 433.755 192.865 434.807 193.543C435.86 194.22 436.685 195.197 437.283 196.473C437.889 197.749 438.192 199.284 438.192 201.079C438.192 202.874 437.892 204.413 437.294 205.696C436.696 206.972 435.874 207.956 434.829 208.648C433.784 209.332 432.591 209.675 431.25 209.675C430.241 209.675 429.416 209.505 428.774 209.167C428.14 208.828 427.642 208.431 427.282 207.977C426.922 207.523 426.644 207.119 426.449 206.766H426.255V215.578H423.022ZM426.19 201.047C426.19 202.214 426.359 203.238 426.698 204.117C427.037 204.997 427.527 205.685 428.169 206.182C428.81 206.673 429.596 206.918 430.526 206.918C431.492 206.918 432.299 206.662 432.948 206.15C433.596 205.631 434.086 204.928 434.418 204.042C434.757 203.155 434.926 202.157 434.926 201.047C434.926 199.951 434.76 198.967 434.429 198.095C434.104 197.223 433.614 196.534 432.958 196.03C432.31 195.525 431.499 195.273 430.526 195.273C429.589 195.273 428.796 195.514 428.147 195.997C427.505 196.48 427.019 197.154 426.687 198.019C426.356 198.884 426.19 199.893 426.19 201.047ZM448.971 209.686C447.335 209.686 445.926 209.336 444.744 208.637C443.569 207.93 442.661 206.939 442.019 205.663C441.385 204.38 441.068 202.877 441.068 201.155C441.068 199.454 441.385 197.954 442.019 196.657C442.661 195.359 443.554 194.347 444.7 193.619C445.854 192.891 447.202 192.527 448.744 192.527C449.681 192.527 450.59 192.682 451.469 192.992C452.348 193.301 453.138 193.788 453.837 194.451C454.536 195.114 455.087 195.976 455.491 197.035C455.895 198.088 456.097 199.367 456.097 200.874V202.02H442.895V199.598H452.929C452.929 198.747 452.756 197.994 452.41 197.338C452.064 196.675 451.577 196.152 450.95 195.77C450.33 195.388 449.602 195.197 448.766 195.197C447.858 195.197 447.065 195.421 446.387 195.868C445.717 196.307 445.198 196.884 444.83 197.598C444.47 198.304 444.29 199.072 444.29 199.901V201.793C444.29 202.903 444.484 203.847 444.873 204.625C445.27 205.404 445.821 205.999 446.528 206.409C447.234 206.813 448.059 207.015 449.004 207.015C449.616 207.015 450.175 206.928 450.68 206.755C451.184 206.575 451.62 206.309 451.988 205.955C452.356 205.602 452.637 205.166 452.831 204.647L455.891 205.199C455.646 206.1 455.206 206.889 454.572 207.566C453.945 208.237 453.156 208.759 452.204 209.134C451.26 209.502 450.182 209.686 448.971 209.686ZM459.684 209.35V192.743H462.808V195.381H462.981C463.284 194.487 463.817 193.784 464.581 193.273C465.353 192.754 466.225 192.494 467.198 192.494C467.4 192.494 467.638 192.501 467.912 192.516C468.193 192.53 468.413 192.548 468.571 192.57V195.662C468.441 195.626 468.211 195.586 467.879 195.543C467.548 195.493 467.216 195.468 466.884 195.468C466.12 195.468 465.439 195.63 464.841 195.954C464.25 196.271 463.781 196.715 463.435 197.284C463.089 197.846 462.916 198.488 462.916 199.209V209.35H459.684ZM486.855 209.35H479.686V187.207H487.082C489.251 187.207 491.115 187.65 492.672 188.537C494.229 189.416 495.422 190.681 496.25 192.332C497.087 193.975 497.505 195.947 497.505 198.246C497.505 200.553 497.083 202.535 496.24 204.193C495.404 205.851 494.193 207.127 492.607 208.021C491.021 208.907 489.104 209.35 486.855 209.35ZM483.027 206.431H486.671C488.358 206.431 489.76 206.114 490.877 205.48C491.994 204.838 492.83 203.912 493.385 202.701C493.94 201.483 494.218 199.998 494.218 198.246C494.218 196.509 493.94 195.035 493.385 193.824C492.837 192.613 492.019 191.694 490.931 191.067C489.842 190.44 488.491 190.126 486.876 190.126H483.027V206.431ZM508.395 209.686C506.838 209.686 505.48 209.329 504.319 208.615C503.159 207.902 502.258 206.903 501.616 205.62C500.975 204.337 500.654 202.838 500.654 201.122C500.654 199.4 500.975 197.893 501.616 196.603C502.258 195.313 503.159 194.311 504.319 193.597C505.48 192.883 506.838 192.527 508.395 192.527C509.952 192.527 511.311 192.883 512.472 193.597C513.632 194.311 514.533 195.313 515.175 196.603C515.816 197.893 516.137 199.4 516.137 201.122C516.137 202.838 515.816 204.337 515.175 205.62C514.533 206.903 513.632 207.902 512.472 208.615C511.311 209.329 509.952 209.686 508.395 209.686ZM508.406 206.972C509.415 206.972 510.251 206.705 510.915 206.172C511.578 205.638 512.068 204.928 512.385 204.042C512.709 203.155 512.872 202.178 512.872 201.111C512.872 200.052 512.709 199.079 512.385 198.192C512.068 197.298 511.578 196.581 510.915 196.041C510.251 195.5 509.415 195.23 508.406 195.23C507.39 195.23 506.546 195.5 505.876 196.041C505.213 196.581 504.719 197.298 504.395 198.192C504.078 199.079 503.919 200.052 503.919 201.111C503.919 202.178 504.078 203.155 504.395 204.042C504.719 204.928 505.213 205.638 505.876 206.172C506.546 206.705 507.39 206.972 508.406 206.972ZM526.741 209.686C525.134 209.686 523.75 209.322 522.589 208.594C521.436 207.858 520.549 206.846 519.929 205.555C519.309 204.265 518.999 202.787 518.999 201.122C518.999 199.436 519.317 197.947 519.951 196.657C520.585 195.359 521.479 194.347 522.632 193.619C523.786 192.891 525.144 192.527 526.709 192.527C527.97 192.527 529.094 192.761 530.082 193.229C531.069 193.691 531.866 194.339 532.471 195.176C533.084 196.012 533.448 196.988 533.563 198.106H530.417C530.244 197.327 529.848 196.657 529.228 196.095C528.615 195.532 527.793 195.251 526.763 195.251C525.862 195.251 525.072 195.489 524.395 195.965C523.724 196.433 523.202 197.104 522.827 197.976C522.452 198.841 522.265 199.864 522.265 201.047C522.265 202.258 522.449 203.303 522.816 204.182C523.184 205.062 523.703 205.743 524.373 206.226C525.051 206.709 525.847 206.95 526.763 206.95C527.375 206.95 527.93 206.838 528.428 206.615C528.932 206.384 529.354 206.056 529.693 205.631C530.039 205.206 530.28 204.694 530.417 204.096H533.563C533.448 205.17 533.099 206.128 532.515 206.972C531.931 207.815 531.149 208.478 530.168 208.961C529.195 209.444 528.053 209.686 526.741 209.686ZM549.466 196.797L546.535 197.316C546.413 196.942 546.218 196.585 545.952 196.246C545.692 195.907 545.339 195.63 544.892 195.413C544.445 195.197 543.886 195.089 543.216 195.089C542.301 195.089 541.537 195.295 540.924 195.705C540.311 196.109 540.005 196.632 540.005 197.273C540.005 197.828 540.21 198.275 540.621 198.614C541.032 198.953 541.695 199.23 542.611 199.446L545.249 200.052C546.777 200.405 547.916 200.949 548.665 201.685C549.415 202.42 549.79 203.375 549.79 204.55C549.79 205.545 549.502 206.431 548.925 207.21C548.356 207.981 547.559 208.586 546.535 209.026C545.519 209.466 544.341 209.686 543 209.686C541.14 209.686 539.623 209.289 538.448 208.496C537.273 207.696 536.552 206.561 536.285 205.09L539.41 204.615C539.605 205.429 540.005 206.045 540.61 206.464C541.216 206.874 542.005 207.08 542.978 207.08C544.038 207.08 544.885 206.86 545.519 206.42C546.153 205.973 546.471 205.429 546.471 204.788C546.471 204.269 546.276 203.833 545.887 203.479C545.505 203.126 544.917 202.859 544.124 202.679L541.313 202.063C539.763 201.71 538.617 201.148 537.875 200.376C537.14 199.605 536.772 198.628 536.772 197.446C536.772 196.466 537.046 195.608 537.594 194.873C538.142 194.138 538.898 193.565 539.864 193.154C540.83 192.736 541.937 192.527 543.184 192.527C544.979 192.527 546.391 192.916 547.422 193.694C548.453 194.466 549.134 195.5 549.466 196.797Z" fill="white"/>
<g clip-path="url(#clip0_2851_55)">
<rect x="173.02" y="99.9228" width="39.7138" height="15.8855" rx="7.94276" fill="white"/>
<rect x="220.677" y="99.9228" width="15.8855" height="15.8855" rx="7.94276" fill="#C6C6FF"/>
<rect x="196.849" y="147.579" width="39.7138" height="15.8855" rx="7.94276" fill="#C6C6FF"/>
<rect x="173.02" y="147.579" width="15.8855" height="15.8855" rx="7.94276" fill="white"/>
<rect x="173.02" y="123.751" width="27.7997" height="15.8855" rx="7.94276" fill="white"/>
<rect x="208.763" y="123.751" width="27.7997" height="15.8855" rx="7.94276" fill="#C6C6FF"/>
<path d="M355.703 157.461V105.714H344.978V157.461H355.703Z" fill="white"/>
<path d="M337.94 157.461V105.714H327.215V157.461H337.94Z" fill="white"/>
<path d="M320.65 157.461V119.466H309.925V140.661C309.925 145.765 307.314 148.387 303.222 148.387C299.129 148.387 296.73 145.765 296.73 140.661V119.466H286.005V144.063C286.005 152.782 290.733 158.17 298.847 158.17C304.28 158.17 307.455 155.263 309.925 152.074V157.461H320.65Z" fill="white"/>
<path d="M281.521 115.213V106.281C279.545 105.643 277.288 105.218 273.901 105.218C266.351 105.218 262.188 109.046 262.188 117.41V119.821H257.743V128.681H262.188V157.461H272.913V128.681H281.451V119.891H272.772V118.403C272.772 115.567 274.183 114.291 276.653 114.291C278.487 114.291 279.969 114.646 281.521 115.213Z" fill="white"/>
<path d="M546.33 151.072L542.822 147.807C539.886 150.93 536.234 153.272 531.508 153.272C523.775 153.272 517.903 146.955 517.903 138.934C517.903 130.984 523.632 124.667 531.15 124.667C536.162 124.667 539.456 127.151 542.392 130.203L546.044 126.37C542.607 122.75 538.239 119.84 531.222 119.84C520.409 119.84 512.247 128.642 512.247 139.076C512.247 149.439 520.409 158.17 531.222 158.17C538.167 158.17 542.607 155.189 546.33 151.072Z" fill="white"/>
<path d="M505.752 112.6V106.566H499.451V112.6H505.752ZM505.323 157.318V120.621H499.809V157.318H505.323Z" fill="white"/>
<path d="M479.382 142.696C479.382 131.623 485.97 125.874 494.061 125.874H494.491V119.982C487.474 119.698 482.103 124.099 479.382 130.203V120.621H473.869V157.318H479.382V142.696Z" fill="white"/>
<path d="M467.276 138.934C467.276 126.796 458.469 119.84 449.59 119.84C442.788 119.84 438.42 123.602 435.412 128.003V105.502H429.899V157.318H435.412V150.291C438.277 154.408 442.716 158.099 449.59 158.099C458.541 158.099 467.276 151.001 467.276 138.934ZM461.62 139.005C461.62 147.949 455.748 153.201 448.588 153.201C441.714 153.201 435.198 147.523 435.198 138.934C435.198 130.416 441.714 124.738 448.588 124.738C455.605 124.738 461.62 130.274 461.62 139.005Z" fill="white"/>
<path d="M405.404 124.951C412.349 124.951 416.431 128.358 416.431 134.959V136.237C413.137 135.314 409.771 134.675 405.045 134.675C395.665 134.675 389.221 138.792 389.221 146.6C389.221 154.266 396.167 158.099 403.041 158.099C409.557 158.099 413.853 155.117 416.431 151.781V157.318H421.729V134.888C421.729 125.235 416.073 120.124 405.976 120.124C400.606 120.124 396.596 121.331 392.515 123.176L394.162 127.648C397.599 126.086 401.036 124.951 405.404 124.951ZM405.618 138.721C410.129 138.721 413.781 139.502 416.502 140.282V143.832C416.502 149.652 410.917 153.769 404.115 153.769C399.102 153.769 394.806 151.072 394.806 146.387C394.806 141.702 398.673 138.721 405.618 138.721Z" fill="white"/>
<path d="M376.82 120.763V117.782C376.82 112.529 378.968 109.974 383.264 109.974C385.126 109.974 386.63 110.329 388.634 110.896V106.141C386.844 105.502 385.126 105.218 382.548 105.218C375.459 105.218 371.378 109.477 371.378 117.498V120.692H366.294V125.448H371.378V157.318H376.891V125.448H388.563V120.763H376.82Z" fill="white"/>
</g>
<defs>
<linearGradient id="paint0_linear_2851_55" x1="0.5" y1="0.339417" x2="748.185" y2="95.4423" gradientUnits="userSpaceOnUse">
<stop stop-color="#4D67F7"/>
<stop offset="1" stop-color="#6162F6"/>
</linearGradient>
<clipPath id="clip0_2851_55">
<rect width="378.605" height="63.5421" fill="white" transform="translate(167.725 99.9228)"/>
</clipPath>
</defs>
</svg>
